<svg id="illustration" xmlns="http://www.w3.org/2000/svg" xmlns:xlink="http://www.w3.org/1999/xlink" width="192.443" height="180" viewBox="0 0 192.443 180">
  <defs>
    <clipPath id="clip-path">
      <rect id="Rectángulo_81" data-name="Rectángulo 81" width="192.443" height="180" fill="none"/>
    </clipPath>
  </defs>
  <g id="Grupo_194" data-name="Grupo 194" clip-path="url(#clip-path)">
    <path id="Trazado_216" data-name="Trazado 216" d="M98.853,177.045c-30.859,0-44.33-9.8-44.33-9.8l-.467-92.253-24.03-7.066L40.21,29.463a15.683,15.683,0,0,1,8.735-10.292L81.368,4.612a47.632,47.632,0,0,0,34.969,0l32.422,14.559a15.683,15.683,0,0,1,8.735,10.292l10.184,38.465-24.03,7.066-.467,92.253s-13.47,9.8-44.329,9.8" transform="translate(-24.489 -0.461)" fill="#fff"/>
    <path id="Trazado_217" data-name="Trazado 217" d="M67.095,69.336c-1.118-5.2-.49-10.94,2.569-15.292,2.84-4.04,7.414-6.488,11.988-8.353a78.589,78.589,0,0,1,22.536-5.483c6.554-.593,13.545-.252,19.1,3.272a18.633,18.633,0,0,1,6.643,24.146c-1,1.981-2.4,3.913-2.4,6.133-.007,3.785,3.806,6.215,6.438,8.933a17.234,17.234,0,0,1-2.785,26.3c-4.582,3.073-10.348,3.771-15.864,3.749-9.545-.037-19.255-2.057-27.375-7.073a36.36,36.36,0,0,1-12.159-12.24A24.446,24.446,0,0,1,72.625,85.7c-.4-2.062-.465-4.028-1.3-5.993-1.5-3.5-3.411-6.582-4.226-10.37" transform="translate(-28.144 -3.997)" fill="#f8ca6f"/>
    <path id="Trazado_218" data-name="Trazado 218" d="M157.883,29.288a16.081,16.081,0,0,0-8.995-10.6l-32.6-14.638-.18.068a47.371,47.371,0,0,1-34.636,0l-.18-.068L48.691,18.69a16.082,16.082,0,0,0-8.994,10.6L29.513,67.753l-.116.438,24.132,7.1.465,91.906v.236l.191.139c.136.1,13.948,9.887,44.6,9.887s44.469-9.788,44.6-9.887l.192-.139.465-92.142,24.132-7.1ZM121.36,7.35c-.535,2.572-3.843,12.862-22.57,12.862S76.755,9.923,76.22,7.35L80.4,5.475C80.86,7.564,83.69,16.221,98.79,16.221S116.72,7.564,117.183,5.475ZM81.322,5.06a48.259,48.259,0,0,0,34.936,0l.059.026c-.22,1.357-2.234,10.2-17.527,10.2S81.482,6.443,81.263,5.086ZM98.79,176.523c-28.384,0-42.119-8.425-43.865-9.58L54.7,123.11h19.57v-.932H54.7l-.24-47.591-.041-.012L49.556,35.918l-.924.117,4.81,38.254L30.529,67.552,40.6,29.526a15.154,15.154,0,0,1,8.475-9.986L75.37,7.733c.765,3.062,4.734,13.411,23.42,13.411S121.445,10.795,122.21,7.733l26.3,11.807a15.154,15.154,0,0,1,8.475,9.986l10.069,38.026L144.138,74.29l4.811-38.254-.924-.117-4.862,38.658-.04.012-.335,66.191h-19.48v.932h19.475l-.128,25.233c-1.743,1.155-15.448,9.579-43.866,9.579m2.665-63.535c.047,0,.085-.009.131-.009a25.887,25.887,0,0,0,22.2-17.86c.149-.466.279-.95.392-1.435,1.732-7.109,1.509-15.829-3.2-20.012a11.28,11.28,0,1,1-20.683,3.047,11.481,11.481,0,0,1,1.556-3.568h.009c.1-.14.205-.289.3-.438a16.924,16.924,0,0,0,2.413-5.441,3.945,3.945,0,0,0,.093-.456l0-.013a4.292,4.292,0,0,0,1.2.19,4.31,4.31,0,0,0,3.775-6.445,4.333,4.333,0,0,0-.657-8.617c-.047,0-.09.012-.136.014a4.321,4.321,0,0,0-8.355-.183l-.018-.021a16.857,16.857,0,0,0-15.139-5.087,8.995,8.995,0,0,1,2.8.214c5.729,3.167,7.472,7.686,4.631,13.742a8.656,8.656,0,0,1-3.019,2.356,6.624,6.624,0,0,1-1.081.419,26.134,26.134,0,0,0-12.754,11.45A25.834,25.834,0,0,0,73.4,81.293a26.135,26.135,0,0,0,19.192,31.592.483.483,0,0,0,.112.019l.14.028h0v6.438l-4.808,4.808.659.659,4.54-4.541h.016l4.541,4.541.659-.659L93.78,119.5v-6.4a31.427,31.427,0,0,0,6.742-.028v11.243l-4.742,4.742.659.658,4.541-4.541H101l4.54,4.541.659-.658-4.742-4.742V112.987h0M98.832,54.212a1.6,1.6,0,1,1-1.6,1.6,1.6,1.6,0,0,1,1.6-1.6M93.312,101.3c-5.087-1.518-8.487-6.14-9.158-13.658,1.481,6.419,4.211,11,9.158,12.735a16.532,16.532,0,0,0,7.574.578c1.5-.2,3-.494,4.481-.792-4.547,1.789-8.673,2.152-12.055,1.137" transform="translate(-24.426 -0.405)" fill="#251726"/>
  </g>
</svg>
