<svg xmlns="http://www.w3.org/2000/svg" width="172.712" height="32.321" viewBox="0 0 172.712 32.321">
  <g id="Grupo_1067" data-name="Grupo 1067" transform="translate(-537.31 -839.015)">
    <g id="Grupo_10" data-name="Grupo 10" transform="translate(572.105 845.139)">
      <g id="Grupo_9" data-name="Grupo 9" style="isolation: isolate">
        <path id="Trazado_22" data-name="Trazado 22" d="M571.556,864.769V845.461h7.534a10.743,10.743,0,0,1,3.9.625,6.03,6.03,0,0,1,2.562,1.818,7.364,7.364,0,0,1,1.388,2.939,16.876,16.876,0,0,1,.425,3.989,19.381,19.381,0,0,1-.4,4.075,8.518,8.518,0,0,1-1.332,3.151,5.94,5.94,0,0,1-2.508,2.017,9.616,9.616,0,0,1-3.895.695Zm4.475-3.747h2.918a3.9,3.9,0,0,0,2.025-.469,2.972,2.972,0,0,0,1.176-1.306,6.472,6.472,0,0,0,.539-1.974,19.746,19.746,0,0,0,.141-2.442,15.626,15.626,0,0,0-.155-2.328,5.38,5.38,0,0,0-.567-1.775,2.767,2.767,0,0,0-1.175-1.15,4.294,4.294,0,0,0-1.982-.4h-2.918Z" transform="translate(-571.556 -845.035)" fill="#251726"/>
        <path id="Trazado_23" data-name="Trazado 23" d="M589.453,848.507v-3.465h4.334v3.465Zm0,16.269V850.494h4.334v14.281Z" transform="translate(-571.269 -845.042)" fill="#251726"/>
        <path id="Trazado_24" data-name="Trazado 24" d="M601.84,865.035a21.23,21.23,0,0,1-2.153-.113q-1.1-.114-2.039-.27c-.623-.1-1.143-.2-1.558-.3l.141-3.123q.736.085,1.671.2c.623.077,1.237.142,1.841.2s1.1.085,1.473.085a5.56,5.56,0,0,0,1.246-.114,1.3,1.3,0,0,0,.723-.4,1.194,1.194,0,0,0,.242-.8.781.781,0,0,0-.242-.6,1.974,1.974,0,0,0-.849-.383,18.087,18.087,0,0,0-1.8-.327,10.381,10.381,0,0,1-2.607-.668,2.939,2.939,0,0,1-1.486-1.306,4.881,4.881,0,0,1-.467-2.314,4.642,4.642,0,0,1,.778-2.869,4.1,4.1,0,0,1,2.082-1.434,9.492,9.492,0,0,1,2.86-.412q1.078,0,2.167.1t2.025.242q.936.142,1.559.284l-.141,3.237c-.473-.075-1.025-.147-1.657-.213s-1.256-.118-1.87-.157-1.128-.056-1.542-.056a4.744,4.744,0,0,0-1.034.1,1.272,1.272,0,0,0-.665.34.978.978,0,0,0-.228.7.781.781,0,0,0,.2.554,1.679,1.679,0,0,0,.793.369,13.833,13.833,0,0,0,1.727.3,9.871,9.871,0,0,1,2.776.709,3.073,3.073,0,0,1,1.5,1.349,5.1,5.1,0,0,1,.452,2.342,4.161,4.161,0,0,1-1.529,3.677A7.629,7.629,0,0,1,601.84,865.035Z" transform="translate(-571.164 -844.961)" fill="#251726"/>
        <path id="Trazado_25" data-name="Trazado 25" d="M614.888,865.086a6.416,6.416,0,0,1-2.577-.439,2.689,2.689,0,0,1-1.431-1.563,9,9,0,0,1-.44-3.166v-5.877h-1.529v-3.577h1.529v-3.55h4.334v3.55h3.343v3.577h-3.343v4.8a8.792,8.792,0,0,0,.1,1.5,1.159,1.159,0,0,0,.411.767,1.581,1.581,0,0,0,.935.228c.113,0,.293-.009.538-.03s.495-.033.75-.042a5.778,5.778,0,0,0,.58-.043l.115,3.435q-.709.142-1.686.284A11.718,11.718,0,0,1,614.888,865.086Z" transform="translate(-570.957 -845.012)" fill="#251726"/>
        <path id="Trazado_26" data-name="Trazado 26" d="M619.841,864.695V850.413h4.333v1.618a9.976,9.976,0,0,1,1.134-.78,12.8,12.8,0,0,1,1.445-.752,5.077,5.077,0,0,1,1.472-.426v4.146a8.166,8.166,0,0,0-1.445.326,14.4,14.4,0,0,0-1.445.539q-.68.3-1.161.554v9.058Z" transform="translate(-570.781 -844.961)" fill="#251726"/>
        <path id="Trazado_27" data-name="Trazado 27" d="M629.821,848.507v-3.465h4.334v3.465Zm0,16.269V850.494h4.334v14.281Z" transform="translate(-570.621 -845.042)" fill="#251726"/>
        <path id="Trazado_28" data-name="Trazado 28" d="M641.93,865.086a6.417,6.417,0,0,1-2.577-.439,2.688,2.688,0,0,1-1.431-1.563,9,9,0,0,1-.44-3.166v-5.877h-1.529v-3.577h1.529v-3.55h4.334v3.55h3.343v3.577h-3.343v4.8a8.8,8.8,0,0,0,.1,1.5,1.16,1.16,0,0,0,.411.767,1.581,1.581,0,0,0,.935.228c.113,0,.293-.009.539-.03s.495-.033.75-.042a5.781,5.781,0,0,0,.58-.043l.115,3.435q-.709.142-1.687.284A11.693,11.693,0,0,1,641.93,865.086Z" transform="translate(-570.523 -845.012)" fill="#251726"/>
        <path id="Trazado_29" data-name="Trazado 29" d="M653.235,865.035a8.563,8.563,0,0,1-3.923-.78,4.659,4.659,0,0,1-2.21-2.456,11.381,11.381,0,0,1-.694-4.316,10.48,10.48,0,0,1,.722-4.231,4.734,4.734,0,0,1,2.252-2.385,10.164,10.164,0,0,1,7.747,0,4.746,4.746,0,0,1,2.237,2.385,10.465,10.465,0,0,1,.722,4.231,11.382,11.382,0,0,1-.694,4.316,4.665,4.665,0,0,1-2.209,2.456A8.638,8.638,0,0,1,653.235,865.035Zm0-3.577a2.576,2.576,0,0,0,1.572-.4,2.061,2.061,0,0,0,.708-1.278,11.676,11.676,0,0,0,.184-2.3,8.939,8.939,0,0,0-.227-2.272,2.066,2.066,0,0,0-.751-1.193,3.153,3.153,0,0,0-2.96,0,2.036,2.036,0,0,0-.765,1.207,8.965,8.965,0,0,0-.227,2.258,10.745,10.745,0,0,0,.2,2.3,2.112,2.112,0,0,0,.721,1.278A2.521,2.521,0,0,0,653.235,861.458Z" transform="translate(-570.355 -844.961)" fill="#251726"/>
        <path id="Trazado_30" data-name="Trazado 30" d="M662.16,864.769V845.461h7.534a10.742,10.742,0,0,1,3.9.625,6.033,6.033,0,0,1,2.563,1.818,7.362,7.362,0,0,1,1.388,2.939,16.927,16.927,0,0,1,.425,3.989,19.313,19.313,0,0,1-.4,4.075,8.515,8.515,0,0,1-1.331,3.151,5.954,5.954,0,0,1-2.508,2.017,9.619,9.619,0,0,1-3.894.695Zm4.475-3.747h2.919a3.9,3.9,0,0,0,2.025-.469,2.984,2.984,0,0,0,1.175-1.306,6.476,6.476,0,0,0,.538-1.974,19.752,19.752,0,0,0,.142-2.442,15.777,15.777,0,0,0-.155-2.328,5.4,5.4,0,0,0-.567-1.775,2.772,2.772,0,0,0-1.176-1.15,4.3,4.3,0,0,0-1.982-.4h-2.919Z" transform="translate(-570.102 -845.035)" fill="#251726"/>
        <path id="Trazado_31" data-name="Trazado 31" d="M686.07,865.035a7.919,7.919,0,0,1-3.839-.795,4.451,4.451,0,0,1-2.039-2.413,11.732,11.732,0,0,1-.609-4.089,10.581,10.581,0,0,1,.75-4.274,5.262,5.262,0,0,1,2.224-2.527,7.431,7.431,0,0,1,3.711-.837,6.885,6.885,0,0,1,4.942,1.59q1.658,1.59,1.657,5.026l-.226,2.243h-8.725a3.243,3.243,0,0,0,.581,2.03,2.365,2.365,0,0,0,1.912.667q.876,0,1.968-.043c.726-.027,1.449-.062,2.167-.1s1.331-.075,1.841-.113l.085,2.953q-.738.142-1.842.3t-2.294.27Q687.146,865.035,686.07,865.035Zm-2.182-8.717h4.646a3.88,3.88,0,0,0-.539-2.37,2.093,2.093,0,0,0-1.727-.668,2.173,2.173,0,0,0-1.77.7A3.788,3.788,0,0,0,683.889,856.318Z" transform="translate(-569.823 -844.961)" fill="#251726"/>
        <path id="Trazado_32" data-name="Trazado 32" d="M696.779,864.689l-3.173-14.281h4.617l2.1,10.62h.708l2.125-10.62h4.363l-3.173,14.281Z" transform="translate(-569.598 -844.956)" fill="#251726"/>
      </g>
    </g>
    <g id="Grupo_11" data-name="Grupo 11" transform="translate(537.31 839.015)">
      <rect id="Rectángulo_7" data-name="Rectángulo 7" width="6.436" height="6.436" rx="0.743" transform="translate(0 25.885)" fill="#251726"/>
      <rect id="Rectángulo_8" data-name="Rectángulo 8" width="6.436" height="6.436" rx="0.743" transform="translate(0 17.272)" fill="#251726"/>
      <rect id="Rectángulo_9" data-name="Rectángulo 9" width="6.436" height="6.436" rx="0.743" transform="translate(0 8.636)" fill="#251726"/>
      <rect id="Rectángulo_10" data-name="Rectángulo 10" width="6.436" height="6.436" rx="0.743" fill="#251726"/>
      <rect id="Rectángulo_11" data-name="Rectángulo 11" width="6.436" height="6.436" rx="0.743" transform="translate(8.636 17.272)" fill="#251726"/>
      <rect id="Rectángulo_12" data-name="Rectángulo 12" width="6.436" height="6.436" rx="0.743" transform="translate(8.636 8.636)" fill="#251726"/>
      <rect id="Rectángulo_13" data-name="Rectángulo 13" width="6.436" height="6.436" rx="0.743" transform="translate(8.636)" fill="#251726"/>
      <rect id="Rectángulo_14" data-name="Rectángulo 14" width="6.436" height="6.436" rx="0.743" transform="translate(17.272 17.272)" fill="#251726"/>
      <rect id="Rectángulo_15" data-name="Rectángulo 15" width="6.436" height="6.436" rx="0.743" transform="translate(17.272 8.636)" fill="#251726"/>
      <rect id="Rectángulo_16" data-name="Rectángulo 16" width="6.436" height="6.436" rx="0.743" transform="translate(8.636 25.885)" fill="#251726"/>
      <path id="Rectángulo_17" data-name="Rectángulo 17" d="M0,0H.1A6.334,6.334,0,0,1,6.436,6.334v.1a0,0,0,0,1,0,0H0a0,0,0,0,1,0,0V0A0,0,0,0,1,0,0Z" transform="translate(17.272)" fill="#251726"/>
      <path id="Rectángulo_18" data-name="Rectángulo 18" d="M0,0H6.436a0,0,0,0,1,0,0V.1A6.334,6.334,0,0,1,.1,6.436H0a0,0,0,0,1,0,0V0A0,0,0,0,1,0,0Z" transform="translate(17.272 25.885)" fill="#251726"/>
    </g>
  </g>
</svg>
