<svg id="remake_logo" data-name="remake logo" xmlns="http://www.w3.org/2000/svg" xmlns:xlink="http://www.w3.org/1999/xlink" width="192.443" height="180" viewBox="0 0 192.443 180">
  <defs>
    <clipPath id="clip-path">
      <rect id="Rectángulo_78" data-name="Rectángulo 78" width="192.443" height="180" fill="none"/>
    </clipPath>
  </defs>
  <path id="Trazado_202" data-name="Trazado 202" d="M10.269,77.276,2.838,90.146H17.7l-7.431-12.87L2.838,90.146H17.7Z" transform="translate(0 -8.259)" fill="#fff"/>
  <path id="Trazado_203" data-name="Trazado 203" d="M201.769,90.147l7.431-12.87H194.338l7.431,12.87,7.431-12.87H194.338Z" transform="translate(-21.383 -8.259)" fill="#fff"/>
  <g id="Grupo_188" data-name="Grupo 188">
    <g id="Grupo_187" data-name="Grupo 187" clip-path="url(#clip-path)">
      <path id="Trazado_204" data-name="Trazado 204" d="M173.821,140.77H20.028a9.279,9.279,0,0,1-9.278-9.279V23.739a9.99,9.99,0,0,1,9.989-9.99H173.11a9.99,9.99,0,0,1,9.99,9.99V131.492a9.279,9.279,0,0,1-9.279,9.279" transform="translate(-1.075 -1.375)" fill="#fff"/>
      <path id="Trazado_205" data-name="Trazado 205" d="M53.6,73.361l-4.88-2.212L47.41,65.955l3.243-4.266,5.357-.124,3.437,4.11-1.071,5.25Z" transform="translate(-4.741 -6.156)" fill="#f8ca6f"/>
      <path id="Trazado_206" data-name="Trazado 206" d="M128.4,61.339l5.508,5.508a12.048,12.048,0,1,0,6.732.009l5.508-5.508a19.215,19.215,0,1,1-17.748-.009m8.766,4.95a.177.177,0,0,0,.225,0l8.379-8.379a.177.177,0,0,0,0-.225l-8.379-8.378a.185.185,0,0,0-.117-.046.163.163,0,0,0-.108.046l-8.379,8.378a.158.158,0,0,0,0,.225l2.286,2.286ZM10.37,61.868h-.9V24.187A10.95,10.95,0,0,1,20.408,13.249H171.783A10.95,10.95,0,0,1,182.72,24.187V70.423h7.017L182.27,83.356,174.8,70.423h7.017V47.846H167.059v-.9H181.82v-6.4H167.059v-.9H181.82V24.187a10.049,10.049,0,0,0-10.038-10.038H20.408A10.049,10.049,0,0,0,10.37,24.187Zm177.808,9.455H176.363l5.908,10.233ZM181.82,91.458h.9v39.1A10.95,10.95,0,0,1,171.783,141.5H160.955l-61.646,2.563,24.718,30.1h4.709v.9H115.954v-.9h6.908l-24.68-30.055-1.205.05v30h5.059v.9H89.254v-.9h6.823V144.2l-1.233-.051-24.651,30.02h6.043v.9H63.454v-.9h5.574L93.718,144.1l-62.483-2.6H20.408A10.95,10.95,0,0,1,9.47,130.561V82.906H2.453L9.92,69.973l7.467,12.933H10.37v39.839H25.131v.9H10.37v6.4H25.131v.9H10.39A10.041,10.041,0,0,0,20.408,140.6H171.783a10.049,10.049,0,0,0,10.038-10.038ZM4.013,82.006H15.828L9.92,71.773ZM92.4,31.239h-.9v99.394h.9ZM52.312,95.569c2.875.157,4.909.54,4.909.989,0,.588-3.484,1.065-7.781,1.065s-7.782-.477-7.782-1.065c0-.408,1.679-.762,4.142-.941a15.495,15.495,0,0,1-2.139-29.725l-1.233-4.868,3.5-4.609,5.8-.134,3.708,4.436-1.062,5.22a15.483,15.483,0,0,1-2.057,29.632M54.378,61.4l-5,.855V67.88L52.5,66.289l.981-.495.027-.153Zm-3.558-.3-1.679-3.856-.759.017-1.69,3.88,2.262.279Zm.489-3.9-1.2.026,1.62,3.721,2.374-.407Zm-7.56,3.582,2.012.248,1.631-3.744-1.006.022Zm.765,4.841.1.378.7.324h.009l3.158,1.432V62.261l-4.967-.611ZM63.558,80.455a14.614,14.614,0,0,0-9.81-13.788l-4.626,2.358-5.094-2.3a14.592,14.592,0,1,0,19.53,13.734M41.115,57.517l-4.623-5.735-.7.564,4.623,5.735Zm19.858-5.735-4.624,5.735.7.564,4.624-5.735ZM48.483,53.73h.9v-8.6h-.9Z" transform="translate(-0.245 -1.325)" fill="#251726"/>
    </g>
  </g>
</svg>
