<svg id="create_logo" data-name="create logo" xmlns="http://www.w3.org/2000/svg" xmlns:xlink="http://www.w3.org/1999/xlink" width="192.443" height="180" viewBox="0 0 192.443 180">
  <defs>
    <clipPath id="clip-path">
      <rect id="Rectángulo_79" data-name="Rectángulo 79" width="192.443" height="180" fill="none"/>
    </clipPath>
  </defs>
  <g id="Grupo_190" data-name="Grupo 190" clip-path="url(#clip-path)">
    <path id="Trazado_207" data-name="Trazado 207" d="M172.611,138.339H21.238a10.488,10.488,0,0,1-10.489-10.488V21.477A10.488,10.488,0,0,1,21.238,10.989H172.611A10.487,10.487,0,0,1,183.1,21.477V127.851a10.487,10.487,0,0,1-10.488,10.488" transform="translate(-1.075 -1.099)" fill="#fff"/>
    <path id="Trazado_208" data-name="Trazado 208" d="M77.881,58.124c-.009.041-.019.079-.028.121a8.582,8.582,0,1,1-15.92-6.054q.127-.239.267-.471A12.757,12.757,0,0,0,48.82,33.094a6.491,6.491,0,0,1,3.342,12.341,5.753,5.753,0,0,1-.814.317A19.767,19.767,0,1,0,77.881,58.124" transform="translate(-3.923 -3.291)" fill="#f8ca6f"/>
    <path id="Trazado_209" data-name="Trazado 209" d="M38.736,59.136A20.24,20.24,0,0,0,53.48,83.544a13.406,13.406,0,0,0,11.534,6.642,13.434,13.434,0,0,0,3.28-.408,13.344,13.344,0,0,0,9.731-9.768,13.375,13.375,0,0,0,.255-19.629,19.977,19.977,0,0,0-.59-2.443l-.569.178-.326-.029a8,8,0,0,1-.277.891c-.193-.129-.376-.266-.578-.387a13.4,13.4,0,0,0-14.6.559A8.08,8.08,0,0,1,61,54.232a8.167,8.167,0,0,1,.714-1.88c.089-.148.175-.3.255-.449A8.08,8.08,0,0,1,69.5,48.055l.035-.448.254-.371a20.1,20.1,0,0,0-6.294-2.854A13.2,13.2,0,0,0,48.161,32.6h-.005l-.032,0v0a6.859,6.859,0,0,0-2.091.542h0l-.027.011-.006,0,0,0a13.192,13.192,0,0,0-5.46,21.269,20.369,20.369,0,0,0-1.8,4.709m22.278,1.406a9.074,9.074,0,0,0,2.6,2.941,13.307,13.307,0,0,0-6.3,2.391,12.274,12.274,0,0,1,3.7-5.333m16.432.286a19.339,19.339,0,0,1-.3,7.682c-.138.563-.3,1.111-.485,1.649a13.371,13.371,0,0,0-4.748-4.844c-.249-.149-.5-.283-.759-.414a9.091,9.091,0,0,0,5.724-4.544c.193.155.387.306.568.471m-5.995,5.259a12.47,12.47,0,0,1,4.792,5.2A19.346,19.346,0,0,1,65.262,81.968a12.627,12.627,0,0,1-2.614-1.182,12.444,12.444,0,0,1-5.768-13.434A12.432,12.432,0,0,1,64.988,64.3a8.978,8.978,0,0,0,3.9.891c.225,0,.449-.012.671-.029a12.7,12.7,0,0,1,1.894.921m5.765,13.44a12.415,12.415,0,0,1-10.508,2.809A20.234,20.234,0,0,0,76.724,72.4a12.45,12.45,0,0,1,.491,7.126m-15.03,2.032a13.637,13.637,0,0,0,1.724.87,19.222,19.222,0,0,1-9.83.332,12.413,12.413,0,0,1,1.7-14.332,13.33,13.33,0,0,0,6.4,13.129m13.563,1.655a12.472,12.472,0,0,1-21.028.6,19.942,19.942,0,0,0,10.561-.9A13.238,13.238,0,0,0,76.783,81a12.344,12.344,0,0,1-1.034,2.209m4.023-6.725a12.66,12.66,0,0,1-1.459,1.957,13.307,13.307,0,0,0-1.1-7.214,19.692,19.692,0,0,0,1.285-9.32,12.5,12.5,0,0,1,1.273,14.577M66.024,57.966a12.415,12.415,0,0,1,9.454,1.4c.235.141.452.3.674.452a8.16,8.16,0,0,1-6.479,4.433,13.314,13.314,0,0,0-4.444-.835,8.137,8.137,0,0,1-3.5-3.441,12.47,12.47,0,0,1,4.3-2.006M57.579,63.2a13.359,13.359,0,0,0-1.51,3.665,13.382,13.382,0,0,0-4.013,13.192,13.564,13.564,0,0,0,.853,2.4A19.294,19.294,0,0,1,41.2,55.111a13.152,13.152,0,0,0,6.031,3.326,13.378,13.378,0,0,0,3.178.385,13.084,13.084,0,0,0,9.6-4.193,8.972,8.972,0,0,0,.6,5.09A13.3,13.3,0,0,0,57.579,63.2M50.9,46.116c.26-.11.522-.214.8-.31A19.148,19.148,0,0,1,62.641,45.1a12.26,12.26,0,0,1-1.458,6.361c-.081.152-.166.3-.257.451a12.293,12.293,0,0,1-19.282,2.379A19.411,19.411,0,0,1,50.9,46.116m12.121,3.195c.055-.189.111-.377.157-.569a13.15,13.15,0,0,0,.368-3.409,19.228,19.228,0,0,1,4.458,1.853,8.931,8.931,0,0,0-4.983,2.125m-.458-5.148a20.074,20.074,0,0,0-8.7.067,6.925,6.925,0,0,0-1.708-10.782c.374.056.748.124,1.12.215a12.242,12.242,0,0,1,9.292,10.5M48.241,33.492a6.041,6.041,0,0,1,3.117,11.481c-.261.092-.518.194-.772.3a5.974,5.974,0,0,1-3.234.107,6.04,6.04,0,0,1-.987-11.4,5.949,5.949,0,0,1,1.876-.486M38.407,42.7a12.228,12.228,0,0,1,4.473-6.825,6.927,6.927,0,0,0,4.258,10.382,6.889,6.889,0,0,0,1.163.17,20.286,20.286,0,0,0-7.282,7.163A12.241,12.241,0,0,1,38.407,42.7M84.469,92.752H33.021v-.9H84.469Zm-51.448,3.3h8.134v14.287H33.021v.9H84.469v-.9H77.557c.08-.169.318-.72.482-1.091H74.784v-5.272a.38.38,0,0,1,.369-.369H75.8a.845.845,0,0,0,.824-.412c.066-.131.326-.76.5-1.15H74.784V97.528a.353.353,0,0,1,.369-.369h1.258a.828.828,0,0,0,.824-.435l.312-.676h6.922v-.9H33.021ZM42.7,110.329v-6.141a.371.371,0,0,1,.391-.369h1.041a.854.854,0,0,0,.824-.434l.52-1.128H42.7v-4.73a.38.38,0,0,1,.369-.369H44.8a.851.851,0,0,0,.824-.435c.043-.085.178-.376.31-.676H52.5v14.287H42.694l0-.005m21.675.005H62.743v-6.081h.825c.412,0,.8.239.8.977Zm0-8.424c0,.694-.391.868-.8.868h-.825V97.05h.825a.733.733,0,0,1,.8.782Zm-3.19,8.424H54.064V96.2a.655.655,0,0,0-.026-.156h7.143Zm12.04,0H65.933V104.97s.043-1.129-.564-1.433c.629-.151.564-1.345.564-1.345V97.505a1.894,1.894,0,0,0-.692-1.457h7.98Zm-40.2,3.3H84.469v.9H33.021Z" transform="translate(-3.302 -3.241)" fill="#878787"/>
    <path id="Trazado_210" data-name="Trazado 210" d="M140.7,93.4v14.581H139.6c-.369,0-.434-.217-.455-.325V92.793h.933a.6.6,0,0,1,.629.607M127.8,93.248v14.733h1.085a.458.458,0,0,0,.455-.455v-6.141a.372.372,0,0,1,.392-.369h1.041a.853.853,0,0,0,.824-.434l.52-1.128h-2.777v-4.73a.38.38,0,0,1,.369-.369h1.736a.852.852,0,0,0,.824-.434c.065-.131.347-.738.5-1.129h-4.514a.458.458,0,0,0-.455.455M96.425,118.482h.9V37.871h-.9ZM183.5,21.427V127.8a10.95,10.95,0,0,1-10.939,10.938H161.733L102.556,141.2l24.8,30.2h4.708v.9H119.285v-.9h6.908l-24.764-30.157-1.12.047V171.4h5.058v.9H92.585v-.9h6.824V141.33l-1.231.051L73.524,171.4h6.042v.9H66.785v-.9h5.574l24.612-29.972-.1,0-64.859-2.7H21.188A10.95,10.95,0,0,1,10.25,127.8V21.427A10.95,10.95,0,0,1,21.188,10.489H172.561A10.95,10.95,0,0,1,183.5,21.427m-.9,0a10.049,10.049,0,0,0-10.039-10.038H21.188A10.049,10.049,0,0,0,11.15,21.427v98.559H25.911v.9H11.15v6.4H25.911v.9H11.169a10.042,10.042,0,0,0,10.019,9.653H172.561A10.049,10.049,0,0,0,182.6,127.8V45.086H167.838v-.9H182.6v-6.4H167.838v-.9H182.6Zm-21.176,79.742a.381.381,0,0,1,.37-.369h.65a.847.847,0,0,0,.825-.412c.065-.13.326-.76.5-1.15h-2.344V94.724a.353.353,0,0,1,.37-.369h1.258a.83.83,0,0,0,.824-.434l.52-1.129h-4.057a.473.473,0,0,0-.477.435v14.754h3.471a.884.884,0,0,0,.846-.412c.065-.13.326-.737.5-1.129h-3.255Zm-9.415-.435c.607.3.563,1.433.563,1.433v5.815h-1.561v-5.555c0-.737-.391-.976-.8-.976h-.825v6.531h-1.561V92.793h2.842a1.912,1.912,0,0,1,1.909,1.909v4.687s.067,1.193-.563,1.345m-1-5.705a.733.733,0,0,0-.8-.782h-.825v5.728h.825c.412,0,.8-.174.8-.868Zm12.312-38.786c-.006.039-.02.078-.026.123a8.582,8.582,0,0,1-16.675-4.07,8.8,8.8,0,0,1,.751-1.982l0-.005c.084-.159.174-.316.267-.47a12.756,12.756,0,0,0-13.38-18.626,6.491,6.491,0,0,1,3.341,12.34,5.858,5.858,0,0,1-.814.318,19.793,19.793,0,0,0-9.651,8.655l0,0a20.1,20.1,0,0,0-1.9,4.889A19.771,19.771,0,0,0,139.757,81.3l.071.019a12.96,12.96,0,0,1,2.7-16.051,12.946,12.946,0,0,0,5.948,14.068,13.2,13.2,0,0,0,2.867,1.281,19.763,19.763,0,0,0,11.975-24.378" transform="translate(-1.025 -1.049)" fill="#251726"/>
  </g>
</svg>
