<svg id="remake_web" data-name="remake web" xmlns="http://www.w3.org/2000/svg" xmlns:xlink="http://www.w3.org/1999/xlink" width="192.443" height="180" viewBox="0 0 192.443 180">
  <defs>
    <clipPath id="clip-path">
      <rect id="Rect치ngulo_77" data-name="Rect치ngulo 77" width="192.443" height="180" fill="none"/>
    </clipPath>
  </defs>
  <g id="Grupo_185" data-name="Grupo 185" clip-path="url(#clip-path)">
    <path id="Trazado_194" data-name="Trazado 194" d="M172.612,159.555H21.239A10.488,10.488,0,0,1,10.75,149.068V33.542A10.488,10.488,0,0,1,21.239,23.054H172.612A10.487,10.487,0,0,1,183.1,33.542V149.068a10.487,10.487,0,0,1-10.488,10.488" transform="translate(-1.075 -2.305)" fill="#fff"/>
    <path id="Trazado_195" data-name="Trazado 195" d="M21.36,23.054H172.49a10.61,10.61,0,0,1,10.61,10.61v6.251H10.75V33.664a10.61,10.61,0,0,1,10.61-10.61" transform="translate(-1.075 -2.305)" fill="#f8ca6f"/>
    <path id="Trazado_196" data-name="Trazado 196" d="M39.63,98.907l1.264,2.563,2.829.411-2.047,2,.483,2.817-2.53-1.33L37.1,106.693l.483-2.817-2.047-2,2.829-.411Z" transform="translate(-3.554 -9.891)" fill="#f8ca6f"/>
    <path id="Trazado_197" data-name="Trazado 197" d="M52.524,98.907l1.264,2.563,2.829.411-2.047,2,.483,2.817-2.53-1.33L50,106.693l.483-2.817-2.047-2,2.829-.411Z" transform="translate(-4.843 -9.891)" fill="#f8ca6f"/>
    <path id="Trazado_198" data-name="Trazado 198" d="M65.418,98.907l1.265,2.563,2.829.411-2.047,2,.483,2.817-2.53-1.33-2.529,1.329.483-2.817-2.047-2,2.829-.411Z" transform="translate(-6.133 -9.891)" fill="#f8ca6f"/>
    <path id="Trazado_199" data-name="Trazado 199" d="M78.312,98.907l1.265,2.563,2.829.411-2.047,2,.483,2.817-2.53-1.33-2.529,1.329.483-2.817-2.047-2,2.829-.411Z" transform="translate(-7.422 -9.891)" fill="#f8ca6f"/>
    <path id="Trazado_200" data-name="Trazado 200" d="M91.206,98.907l1.264,2.563,2.829.411-2.047,2,.483,2.817-2.53-1.33-2.529,1.329.483-2.817-2.047-2,2.829-.411Z" transform="translate(-8.711 -9.891)" fill="#f8ca6f"/>
    <rect id="Rect치ngulo_76" data-name="Rect치ngulo 76" width="132.885" height="8.886" transform="translate(29.407 25.151)" fill="#fff"/>
    <path id="Trazado_201" data-name="Trazado 201" d="M33.975,99.881,37.1,98.237l3.128,1.645-.6-3.483,2.529-2.467-3.5-.508L37.1,90.255l-1.562,3.168-3.5.508L34.573,96.4Zm0-5.322,2.161-.314.965-1.957.966,1.957,2.161.314-1.563,1.524.37,2.153L37.1,97.221l-1.931,1.015.369-2.153Zm16.294-1.136-1.563-3.169-1.562,3.168-3.5.508,2.53,2.467-.6,3.483,3.127-1.644,3.127,1.645-.6-3.483,2.53-2.467Zm.369,4.813-1.932-1.016-1.931,1.015.369-2.153L45.58,94.559l2.161-.314.965-1.957.966,1.957,2.16.314-1.562,1.524Zm11.236-4.813-1.563-3.169-1.562,3.168-3.5.508,2.53,2.467-.6,3.483,3.127-1.644,3.127,1.645-.6-3.483,2.53-2.467Zm.369,4.813-1.932-1.016-1.931,1.015.369-2.153-1.562-1.524,2.16-.314.965-1.957.965,1.957,2.162.314-1.563,1.524Zm11.236-4.813-1.563-3.169-1.563,3.168-3.5.508L69.385,96.4l-.6,3.483,3.128-1.644,3.127,1.645-.6-3.483,2.531-2.467Zm.368,4.813-1.931-1.016-1.932,1.015.369-2.153L68.79,94.559l2.16-.314.966-1.957.966,1.957,2.16.314-1.563,1.524Zm11.236-4.813-1.564-3.169-1.562,3.168-3.5.508L80.991,96.4l-.6,3.483,3.126-1.644,3.128,1.645-.6-3.483,2.529-2.467Zm.369,4.813-1.933-1.016-1.931,1.015.369-2.153-1.563-1.524,2.161-.314.964-1.957.967,1.957,2.16.314-1.562,1.524ZM32.559,60.04a.45.45,0,0,1,.45-.45H99.35a.45.45,0,0,1,0,.9H33.009a.45.45,0,0,1-.45-.45m0,7.2a.45.45,0,0,1,.45-.45H99.35a.45.45,0,0,1,0,.9H33.009a.45.45,0,0,1-.45-.45m0,7.2a.45.45,0,0,1,.45-.45H99.35a.45.45,0,0,1,0,.9H33.009a.45.45,0,0,1-.45-.45m0,7.2a.45.45,0,0,1,.45-.45H70.05a.45.45,0,1,1,0,.9H33.009a.45.45,0,0,1-.45-.45m140-59.086H21.188A10.95,10.95,0,0,0,10.25,33.492V149.017a10.95,10.95,0,0,0,10.938,10.939H32l64.874,2.7,64.874-2.7h10.813A10.95,10.95,0,0,0,183.5,149.017V33.492a10.95,10.95,0,0,0-10.938-10.938M182.6,149.017a10.049,10.049,0,0,1-10.038,10.039H21.188A10.049,10.049,0,0,1,11.15,149.017V40.316H182.6Zm0-109.6H11.15V33.492A10.049,10.049,0,0,1,21.188,23.454H172.562A10.049,10.049,0,0,1,182.6,33.492ZM176.582,29.31l-2.539,2.539,2.539,2.539-.492.492-2.539-2.539-2.539,2.539-.492-.492,2.539-2.539-2.539-2.539.492-.492,2.539,2.539,2.539-2.539ZM30.875,26.963H29.99v9.771H163.76V26.963H30.875Zm132,8.886h-132v-8h132ZM20.036,28.964A3.235,3.235,0,1,0,23.271,32.2a3.239,3.239,0,0,0-3.236-3.235m0,5.585a2.35,2.35,0,1,1,2.35-2.35,2.349,2.349,0,0,1-2.35,2.35M41.9,132.9a4.356,4.356,0,1,0-3.087-1.276A4.224,4.224,0,0,0,41.9,132.9m-2.451-6.814a3.474,3.474,0,1,1-1.012,2.451,3.309,3.309,0,0,1,1.012-2.451m-6.172,9.286,3.29-1.427a8.225,8.225,0,0,0,1.482,1.093,7.617,7.617,0,0,0,1.7.719l.432,3.465h3.443l.433-3.465a7.659,7.659,0,0,0,1.7-.719,8.276,8.276,0,0,0,1.481-1.093l3.289,1.427,1.6-2.87L49.2,130.366c.054-.254.1-.5.138-.752a7.329,7.329,0,0,0,.08-1.076,8.9,8.9,0,0,0-.064-1.063,6.723,6.723,0,0,0-.142-.774l2.9-2.128-1.6-2.87-3.271,1.419a7.119,7.119,0,0,0-1.446-1.154,5.461,5.461,0,0,0-1.754-.68l-.429-3.435H40.175l-.431,3.453a6.816,6.816,0,0,0-1.728.7,7.042,7.042,0,0,0-1.463,1.117L33.274,121.7l-1.595,2.87,2.911,2.138c-.053.253-.1.5-.137.751a7.278,7.278,0,0,0,0,2.154c.038.247.084.5.137.751L31.679,132.5Zm2.326-4.631-.068-.291q-.115-.494-.189-.973a6.411,6.411,0,0,1,0-1.88q.074-.479.189-.975l.068-.29-2.75-2.018.814-1.464,3.11,1.35.217-.236a6.209,6.209,0,0,1,1.474-1.178,5.944,5.944,0,0,1,1.777-.672l.317-.066.411-3.3h1.855l.413,3.319.341.049a4.635,4.635,0,0,1,1.759.617A6.26,6.26,0,0,1,46.8,123.96l.216.245,3.116-1.353.813,1.464-2.763,2.03.088.3a5.915,5.915,0,0,1,.2.935,8.169,8.169,0,0,1,.057.955,6.328,6.328,0,0,1-.07.94c-.048.32-.112.644-.188.973l-.069.291,2.75,2.018-.813,1.464-3.1-1.344-.216.216a7.312,7.312,0,0,1-1.517,1.162,6.7,6.7,0,0,1-1.763.7l-.3.074-.41,3.286H40.97l-.41-3.286-.3-.074a6.673,6.673,0,0,1-1.763-.7,7.318,7.318,0,0,1-1.517-1.162l-.216-.216-3.1,1.344-.814-1.464Zm6.3.353a2.557,2.557,0,1,0-1.808-.749,2.474,2.474,0,0,0,1.808.749m-1.172-3.729a1.657,1.657,0,0,1,2.344,2.344,1.648,1.648,0,0,1-2.344,0,1.658,1.658,0,0,1,0-2.344m106.8,6.416a5.235,5.235,0,1,0-3.711-1.534,5.076,5.076,0,0,0,3.711,1.534m-3.074-8.32a4.36,4.36,0,1,1-1.269,3.075,4.154,4.154,0,0,1,1.269-3.075m-7.446,11.322,4.008-1.74a9.889,9.889,0,0,0,1.844,1.369,9.263,9.263,0,0,0,2.121.891l.527,4.221h4.04l.527-4.221a9.206,9.206,0,0,0,2.12-.891,9.872,9.872,0,0,0,1.846-1.369l4.008,1.74,1.866-3.36-3.549-2.6q.108-.5.181-.98a8.684,8.684,0,0,0,.1-1.3,10.718,10.718,0,0,0-.077-1.29,7.881,7.881,0,0,0-.189-1l3.537-2.6-1.866-3.36-3.99,1.732a8.655,8.655,0,0,0-1.8-1.448,6.624,6.624,0,0,0-2.186-.833l-.525-4.191h-4.04l-.526,4.211a8.288,8.288,0,0,0-2.16.864,8.669,8.669,0,0,0-1.82,1.4l-4-1.734-1.866,3.36,3.549,2.6q-.108.5-.181.98a8.705,8.705,0,0,0,0,2.606q.073.483.181.98l-3.549,2.6ZM139.7,131.2l-.068-.29c-.1-.407-.173-.805-.233-1.2a7.847,7.847,0,0,1,0-2.335c.06-.4.138-.794.233-1.2l.068-.29-3.387-2.486,1.084-1.951,3.828,1.66.218-.235a7.675,7.675,0,0,1,1.829-1.463,7.41,7.41,0,0,1,2.208-.835l.317-.065.506-4.055h2.452l.508,4.076.341.049a5.811,5.811,0,0,1,2.191.769,7.813,7.813,0,0,1,1.813,1.517l.217.245,3.835-1.663,1.084,1.951-3.4,2.5.09.3a7.267,7.267,0,0,1,.243,1.164,9.821,9.821,0,0,1,.07,1.181,7.823,7.823,0,0,1-.086,1.167c-.06.4-.139.794-.233,1.2l-.068.29,3.386,2.486-1.084,1.951-3.816-1.655-.216.217a9,9,0,0,1-1.88,1.44,8.231,8.231,0,0,1-2.186.874l-.3.074-.5,4.044H146.3l-.5-4.044-.3-.074a8.251,8.251,0,0,1-2.188-.875,9,9,0,0,1-1.878-1.439l-.216-.217-3.816,1.655-1.084-1.951Zm7.827.374a3.034,3.034,0,1,0-2.143-.889,2.928,2.928,0,0,0,2.143.889m-1.507-4.539a2.129,2.129,0,1,1-.625,1.507,2.034,2.034,0,0,1,.625-1.507M41.386,141.836l107.639,1.511h.005a15.212,15.212,0,0,0,15.195-15.195,14.442,14.442,0,0,0-14.43-14.424L41.387,115.241a13.3,13.3,0,0,0,0,26.595m.014-25.695,108.4-1.513a13.54,13.54,0,0,1,13.523,13.524,14.311,14.311,0,0,1-14.292,14.295L41.4,140.936a12.4,12.4,0,0,1,0-24.795m97.352-38.7a129.825,129.825,0,0,1,21.2-22.964h7.933a.5.5,0,0,1,.363.837,337.166,337.166,0,0,0-27.419,33.359,2.36,2.36,0,0,1-3.653-.012L125.359,74.138a.953.953,0,0,1,.059-1.269l2.671-2.716a.953.953,0,0,1,1.268-.082Zm-18.6,9.036A19.309,19.309,0,0,1,146.185,61.24a.45.45,0,1,1-.391.81,18.244,18.244,0,0,0-8.008-1.828,18.394,18.394,0,1,0,18.038,14.7.451.451,0,0,1,.883-.181,19.462,19.462,0,0,1,.391,3.892c0,.31-.032.611-.046.917.049.557.085,1.119.085,1.688a18.862,18.862,0,0,1-36.982,5.241" transform="translate(-1.025 -2.255)" fill="#251726"/>
  </g>
</svg>
